<svg xmlns="http://www.w3.org/2000/svg" width="22.728" height="39.012" viewBox="0 0 22.728 39.012">
  <path id="Insert" d="M26.28,54.4a9.624,9.624,0,0,0,6.68,2.578,13.714,13.714,0,0,0,1.411-.081h.1A11.259,11.259,0,0,0,45.721,45.648V30.958H42.478v14.69a8.027,8.027,0,0,1-8.01,8.01l-.405.016A6.677,6.677,0,0,1,28.5,52.053a7.8,7.8,0,0,1-2.238-6.291V26.029a4.865,4.865,0,0,1,9.729.065V45.551a1.622,1.622,0,0,1-3.243,0V30.925H29.506V45.551a4.864,4.864,0,0,0,9.729,0V26.012a8.107,8.107,0,0,0-16.214,0V45.518A11.023,11.023,0,0,0,26.28,54.4Z" transform="translate(-22.993 -17.97)" fill="#fff"/>
</svg>
