<svg xmlns="http://www.w3.org/2000/svg" width="40.531" height="37.945" viewBox="0 0 40.531 37.945">
  <path id="Chat" d="M16.024,37.945a.987.987,0,0,1-.808-.411l-3.991-5.486H10a10.011,10.011,0,0,1-10-10V10A10.011,10.011,0,0,1,10,0H30.531a10.011,10.011,0,0,1,10,10V22.047a10.011,10.011,0,0,1-10,10H20.822l-3.99,5.486A.99.99,0,0,1,16.024,37.945ZM29.219,13.2a2.828,2.828,0,1,0,2.828,2.828A2.831,2.831,0,0,0,29.219,13.2Zm-8.483,0a2.828,2.828,0,1,0,2.828,2.828A2.831,2.831,0,0,0,20.737,13.2Zm-8.483,0a2.828,2.828,0,1,0,2.828,2.828A2.831,2.831,0,0,0,12.254,13.2Z" fill="#fff"/>
</svg>
