<svg xmlns="http://www.w3.org/2000/svg" width="38.999" height="39" viewBox="0 0 38.999 39">
  <g id="Group_358" data-name="Group 358" transform="translate(-296.999 -63)">
    <g id="noun_Screenshot_4068281" transform="translate(296.999 63)">
      <g id="Group_98" data-name="Group 98" transform="translate(0 0)">
        <path id="Path_75" data-name="Path 75" d="M35.642,28.678V11.964A6.964,6.964,0,0,0,28.678,5H11.964A6.964,6.964,0,0,0,5,11.964V28.678a6.964,6.964,0,0,0,6.964,6.964H28.678A6.964,6.964,0,0,0,35.642,28.678ZM11.964,7.786H28.678a4.179,4.179,0,0,1,4.179,4.179v7.925L31.7,18.664a4.178,4.178,0,0,0-5.989-.125L21.338,22.87a1.393,1.393,0,0,1-.989.4,1.462,1.462,0,0,1-.989-.432L17.536,20.92a4.179,4.179,0,0,0-5.348-.6l-4.4,2.925V11.964a4.179,4.179,0,0,1,4.179-4.179ZM28.678,32.857H11.964a4.179,4.179,0,0,1-4.179-4.179V26.589l5.947-3.928a1.393,1.393,0,0,1,1.769.195l1.852,1.922a4.171,4.171,0,0,0,5.947.07l4.373-4.332a1.38,1.38,0,0,1,1.992.042l3.064,3.273a.146.146,0,0,1,.125.1v4.75a4.178,4.178,0,0,1-4.178,4.179Z" transform="translate(-0.821 -0.821)" fill="#fff"/>
        <path id="Path_76" data-name="Path 76" d="M30.964,24a1.393,1.393,0,0,0-1.393,1.393v2.786a1.393,1.393,0,0,1-1.393,1.393H25.393a1.393,1.393,0,0,0,0,2.786h2.786a4.179,4.179,0,0,0,4.179-4.179V25.393A1.393,1.393,0,0,0,30.964,24Z" transform="translate(6.642 6.642)" fill="#fff"/>
        <path id="Path_77" data-name="Path 77" d="M8.964,29.571H6.179a1.393,1.393,0,0,1-1.393-1.393V25.393a1.393,1.393,0,0,0-2.786,0v2.786a4.179,4.179,0,0,0,4.179,4.179H8.964a1.393,1.393,0,0,0,0-2.786Z" transform="translate(-2 6.642)" fill="#fff"/>
        <path id="Path_78" data-name="Path 78" d="M28.179,2H25.393a1.393,1.393,0,0,0,0,2.786h2.786a1.393,1.393,0,0,1,1.393,1.393V8.964a1.393,1.393,0,1,0,2.786,0V6.179A4.179,4.179,0,0,0,28.179,2Z" transform="translate(6.642 -2)" fill="#fff"/>
        <path id="Path_79" data-name="Path 79" d="M3.393,10.357A1.393,1.393,0,0,0,4.786,8.964V6.179A1.393,1.393,0,0,1,6.179,4.786H8.964A1.393,1.393,0,0,0,8.964,2H6.179A4.179,4.179,0,0,0,2,6.179V8.964A1.393,1.393,0,0,0,3.393,10.357Z" transform="translate(-2 -2)" fill="#fff"/>
      </g>
    </g>
    <path id="Path_252" data-name="Path 252" d="M581.731,1387.885l7.291-4.456,3.353,1.533,1.118,1.677h2.182l2.023-.767,1.969-2.444,2.182-1.629,2.023-.288,2.5,1.2,1.7,1.629,1.65,1.965-.479,5.175-1.7,2.923-1.756,1.1-7.025.814-6.387-.527h-4.843l-3.938-.863-2.289-1.965Z" transform="translate(-277.834 -1299.997)" fill="#fff"/>
  </g>
</svg>
