<svg xmlns="http://www.w3.org/2000/svg" width="34.18" height="33.924" viewBox="0 0 34.18 33.924">
  <g id="noun_Invite_friends_3775137" data-name="noun_Invite friends_3775137" transform="translate(0 -0.319)">
    <circle id="Ellipse_208" data-name="Ellipse 208" cx="8.417" cy="8.417" r="8.417" transform="translate(11.478 0.319)" fill="#787ff6"/>
    <path id="Path_305" data-name="Path 305" d="M22.514,14H13.969A9.98,9.98,0,0,0,4,23.969v2.848a1.424,1.424,0,0,0,1.424,1.424H31.059a1.424,1.424,0,0,0,1.424-1.424V23.969A9.98,9.98,0,0,0,22.514,14Z" transform="translate(1.697 6.001)" fill="#787ff6"/>
    <path id="Path_306" data-name="Path 306" d="M5.7,7A1.424,1.424,0,0,0,4.272,8.424v2.848H1.424a1.424,1.424,0,1,0,0,2.848H4.272v2.848a1.424,1.424,0,1,0,2.848,0V14.121H9.969a1.424,1.424,0,1,0,0-2.848H7.121V8.424A1.424,1.424,0,0,0,5.7,7Z" transform="translate(0 3.032)" fill="#787ff6"/>
  </g>
</svg>
