<svg id="Group_85" data-name="Group 85" xmlns="http://www.w3.org/2000/svg" width="29.09" height="27.007" viewBox="0 0 29.09 27.007">
  <path id="Path_70" data-name="Path 70" d="M22.78,16.5A2.077,2.077,0,0,1,20.7,18.581H10.316v7.271a4.155,4.155,0,0,0,4.155,4.155H26.935a4.155,4.155,0,0,0,4.155-4.155V7.155A4.155,4.155,0,0,0,26.935,3H14.471a4.155,4.155,0,0,0-4.155,4.155v7.271H20.7A2.077,2.077,0,0,1,22.78,16.5ZM2.307,15.766l4.155-4.155a1.043,1.043,0,1,1,1.475,1.475L5.548,15.465H20.7a1.039,1.039,0,0,1,0,2.077H5.548l2.389,2.379A1.043,1.043,0,1,1,6.462,21.4L2.307,17.241a1.039,1.039,0,0,1,0-1.475Z" transform="translate(-2 -3)" fill="#fff"/>
</svg>
