<svg xmlns="http://www.w3.org/2000/svg" width="20.05" height="37.912" viewBox="0 0 20.05 37.912">
  <g id="Mic" transform="translate(-112.266 -958)">
    <g id="Icon_ionic-ios-mic" data-name="Icon ionic-ios-mic" transform="translate(112.266 958)">
      <path id="Path_16" data-name="Path 16" d="M19.333,29.622h0a5.85,5.85,0,0,0,5.833-5.833V9.208a5.85,5.85,0,0,0-5.833-5.833h0A5.85,5.85,0,0,0,13.5,9.208V23.789A5.85,5.85,0,0,0,19.333,29.622Z" transform="translate(-9.308 -3.375)" fill="#fff"/>
      <path id="Path_17" data-name="Path 17" d="M29.039,13.5a1.28,1.28,0,0,0-1.276,1.276v6.288a7.473,7.473,0,0,1-14.946,0V14.776a1.276,1.276,0,1,0-2.552,0v6.288a10.037,10.037,0,0,0,8.749,9.943v4.73H15.734a1.276,1.276,0,1,0,0,2.552h9.113a1.276,1.276,0,0,0,0-2.552H21.566v-4.73a10.037,10.037,0,0,0,8.749-9.943V14.776A1.28,1.28,0,0,0,29.039,13.5Z" transform="translate(-10.266 -0.377)" fill="#fff"/>
    </g>
  </g>
</svg>
