<svg xmlns="http://www.w3.org/2000/svg" width="27.244" height="37.912" viewBox="0 0 27.244 37.912">
  <g id="Group_371" data-name="Group 371" transform="translate(-127.165 -947.988)">
    <path id="Subtraction_15" data-name="Subtraction 15" d="M17.465-1151.2H8.351a1.277,1.277,0,0,1-1.276-1.275,1.278,1.278,0,0,1,1.276-1.276h3.28v-4.729a10.042,10.042,0,0,1-8.749-9.943v-6.288a1.277,1.277,0,0,1,1.276-1.275,1.277,1.277,0,0,1,1.275,1.275v6.288a7.482,7.482,0,0,0,7.474,7.474,7.511,7.511,0,0,0,6.771-4.313l1.761,2.1a9.99,9.99,0,0,1-7.256,4.684v4.729h3.281a1.277,1.277,0,0,1,1.275,1.276A1.277,1.277,0,0,1,17.465-1151.2Zm-4.557-11.665a5.839,5.839,0,0,1-5.833-5.833v-11.586l11.337,13.511A5.849,5.849,0,0,1,12.908-1162.864Zm9.476-2.286h0l-2.048-2.441a7.545,7.545,0,0,0,.046-.832v-6.288a1.277,1.277,0,0,1,1.276-1.275,1.277,1.277,0,0,1,1.275,1.275v6.288a9.982,9.982,0,0,1-.548,3.272Zm-3.644-4.342,0,0-11.662-13.9a5.8,5.8,0,0,1,1.75-4.043,5.8,5.8,0,0,1,4.082-1.676,5.839,5.839,0,0,1,5.832,5.833v13.786Z" transform="translate(127.879 2137.099)" fill="#fff"/>
    <rect id="Rectangle_379" data-name="Rectangle 379" width="2" height="40" transform="translate(127.165 949.917) rotate(-40)" fill="#fff"/>
  </g>
</svg>
