<svg xmlns="http://www.w3.org/2000/svg" width="24.189" height="24.195" viewBox="0 0 24.189 24.195">
  <path id="Icon_ionic-ios-settings" data-name="Icon ionic-ios-settings" d="M26.692,16.594a3.113,3.113,0,0,1,2-2.9,12.338,12.338,0,0,0-1.493-3.6,3.154,3.154,0,0,1-1.266.271,3.106,3.106,0,0,1-2.841-4.372A12.3,12.3,0,0,0,19.5,4.5a3.11,3.11,0,0,1-5.808,0,12.338,12.338,0,0,0-3.6,1.493,3.106,3.106,0,0,1-2.841,4.372,3.052,3.052,0,0,1-1.266-.271A12.61,12.61,0,0,0,4.5,13.7,3.112,3.112,0,0,1,4.506,19.5,12.338,12.338,0,0,0,6,23.1a3.107,3.107,0,0,1,4.1,4.1,12.41,12.41,0,0,0,3.6,1.493,3.1,3.1,0,0,1,5.8,0,12.338,12.338,0,0,0,3.6-1.493,3.11,3.11,0,0,1,4.1-4.1,12.41,12.41,0,0,0,1.493-3.6A3.127,3.127,0,0,1,26.692,16.594ZM16.651,21.627a5.039,5.039,0,1,1,5.039-5.039A5.038,5.038,0,0,1,16.651,21.627Z" transform="translate(-4.5 -4.5)" fill="#02111b"/>
</svg>
