<svg xmlns="http://www.w3.org/2000/svg" width="47.254" height="37.986" viewBox="0 0 47.254 37.986">
  <path id="Share_Screen" data-name="Share Screen" d="M-4302.856,207.969a1.442,1.442,0,0,1-1.432-1.452,1.441,1.441,0,0,1,1.432-1.451h4.475V201.91h-17.194a5.005,5.005,0,0,1-5-5V174.982a5.006,5.006,0,0,1,5-5h37.254a5,5,0,0,1,5,5v21.929a5,5,0,0,1-5,5h-17.2v3.155h4.477a1.442,1.442,0,0,1,1.433,1.451,1.443,1.443,0,0,1-1.433,1.452Zm4.334-25.507v11.47a.953.953,0,0,0,.945.957h1.261a.953.953,0,0,0,.946-.957V182.459l4.517,4.806a.935.935,0,0,0,.684.3.929.929,0,0,0,.667-.28l.875-.886a.964.964,0,0,0,0-1.353l-7.654-7.757a.923.923,0,0,0-.666-.281.932.932,0,0,0-.668.281l-7.654,7.762a.964.964,0,0,0,0,1.353l.875.886a.924.924,0,0,0,.667.282.929.929,0,0,0,.684-.3l4.52-4.809,0,0Z" transform="translate(4320.576 -169.983)" fill="#fff"/>
</svg>
