<svg xmlns="http://www.w3.org/2000/svg" width="37.784" height="21.591" viewBox="0 0 37.784 21.591">
  <g id="Icon_ionic-ios-videocam" data-name="Icon ionic-ios-videocam" transform="translate(-2.25 -9)">
    <path id="Path_253" data-name="Path 253" d="M33.083,10.8a1.441,1.441,0,0,0-.784.228l-7.3,4.6a.722.722,0,0,0-.337.607v6.41a.722.722,0,0,0,.337.607l7.3,4.6a1.516,1.516,0,0,0,.784.228h1.754a.718.718,0,0,0,.725-.717V11.517a.724.724,0,0,0-.725-.717Z" transform="translate(4.472 0.359)" fill="#fff"/>
    <path id="Path_254" data-name="Path 254" d="M22.618,30.591H6.593A4.357,4.357,0,0,1,2.25,26.256V13.335A4.35,4.35,0,0,1,6.585,9H22.61a4.35,4.35,0,0,1,4.335,4.335V26.247A4.339,4.339,0,0,1,22.618,30.591Z" fill="#fff"/>
  </g>
</svg>
